<?xml version="1.0" encoding="UTF-8"?> <svg xmlns="http://www.w3.org/2000/svg" data-v-fde0c5aa="" viewBox="0 0 300 300" class="iconLeft"><!----><defs data-v-fde0c5aa=""><!----></defs><rect data-v-fde0c5aa="" fill="#411640" x="0" y="0" width="300px" height="300px" class="logo-background-square"></rect><defs data-v-fde0c5aa=""><!----></defs><g data-v-fde0c5aa="" id="65c4326b-24e7-4ed9-8f66-def490763326" fill="#FFFFFF" transform="matrix(4.7966910450356774,0,0,4.7966910450356774,126.02842050737027,112.4658912002515)"><path d="M3.60 6.80L3.60 6.80L3.60 6.80Q3.65 6.80 3.81 6.92L3.81 6.92L3.81 6.92Q3.96 7.03 4.13 7.03L4.13 7.03L4.14 7.03L4.14 7.03Q4.62 7.03 4.90 6.65L4.90 6.65L4.90 6.65Q5.18 6.27 5.21 5.89L5.21 5.89L5.25 5.52L5.25 5.52Q5.25 4.98 5.09 4.60L5.09 4.60L5.09 4.60Q4.93 4.21 4.72 4.03L4.72 4.03L4.72 4.03Q4.51 3.84 4.23 3.74L4.23 3.74L4.23 3.74Q3.88 3.60 3.49 3.60L3.49 3.60L3.49 3.60Q3.11 3.60 2.87 3.67L2.87 3.67L2.87 3.67Q2.63 3.75 2.60 3.82L2.60 3.82L2.59 3.91L2.59 3.91Q2.46 5.80 2.46 7.29L2.46 7.29L2.46 7.29Q2.46 8.78 2.51 9.86L2.51 9.86L2.51 9.86Q2.56 10.93 2.61 11.52L2.61 11.52L2.61 11.52Q2.66 12.10 2.66 12.15L2.66 12.15L2.66 12.15Q2.66 12.50 2.04 12.71L2.04 12.71L2.04 12.71Q1.43 12.92 0.83 12.92L0.83 12.92L0.83 12.92Q0.55 12.92 0.55 12.78L0.55 12.78L0.55 12.78Q0.55 12.74 0.59 12.59L0.59 12.59L0.59 12.59Q0.85 11.97 0.85 6.86L0.85 6.86L0.85 6.86Q0.85 3.85 0.45 3.42L0.45 3.42L0.45 3.42Q0.36 3.33 0.36 3.24L0.36 3.24L0.36 3.24Q0.36 3.15 0.57 3.04L0.57 3.04L0.57 3.04Q0.77 2.93 1.71 2.78L1.71 2.78L1.71 2.78Q2.65 2.63 3.70 2.63L3.70 2.63L3.70 2.63Q5.35 2.63 6.18 3.53L6.18 3.53L6.18 3.53Q7.01 4.42 7.01 5.66L7.01 5.66L7.01 5.66Q7.01 6.90 6.33 7.81L6.33 7.81L6.33 7.81Q5.66 8.72 4.56 8.72L4.56 8.72L4.56 8.72Q4.21 8.72 3.86 8.60L3.86 8.60L3.86 8.60Q3.16 8.34 3.16 7.55L3.16 7.55L3.16 7.55Q3.16 7.38 3.28 7.09L3.28 7.09L3.28 7.09Q3.39 6.80 3.60 6.80ZM8.26 9.11L8.26 9.11L8.27 9.46L8.27 9.46Q8.27 9.55 8.39 9.55L8.39 9.55L8.39 9.55Q8.83 9.51 9.17 9.32L9.17 9.32L9.17 9.32Q9.51 9.13 9.67 8.89L9.67 8.89L9.67 8.89Q10.01 8.37 10.04 7.99L10.04 7.99L10.05 7.83L10.05 7.83Q10.05 7.07 9.45 7.07L9.45 7.07L9.45 7.07Q9.00 7.07 8.72 7.46L8.72 7.46L8.72 7.46Q8.26 8.08 8.26 9.11ZM11.31 10.98L11.31 10.98L11.31 10.98Q11.31 11.51 11.09 11.91L11.09 11.91L11.09 11.91Q10.88 12.31 10.61 12.49L10.61 12.49L10.61 12.49Q10.33 12.68 9.97 12.80L9.97 12.80L9.97 12.80Q9.51 12.94 9.09 12.94L9.09 12.94L9.09 12.94Q7.91 12.94 7.35 12.05L7.35 12.05L7.35 12.05Q6.79 11.17 6.79 9.81L6.79 9.81L6.79 9.81Q6.79 8.44 7.48 7.38L7.48 7.38L7.48 7.38Q8.18 6.31 9.56 6.31L9.56 6.31L9.56 6.31Q10.82 6.31 11.27 7.20L11.27 7.20L11.27 7.20Q11.45 7.53 11.45 7.83L11.45 7.83L11.45 7.83Q11.45 8.13 11.42 8.31L11.42 8.31L11.42 8.31Q11.40 8.48 11.23 8.83L11.23 8.83L11.23 8.83Q11.06 9.18 10.78 9.46L10.78 9.46L10.78 9.46Q10.50 9.74 9.90 10.00L9.90 10.00L9.90 10.00Q9.30 10.25 8.48 10.33L8.48 10.33L8.48 10.33Q8.37 10.33 8.37 10.43L8.37 10.43L8.37 10.43Q8.37 10.56 8.46 10.80L8.46 10.80L8.46 10.80Q8.55 11.05 8.67 11.21L8.67 11.21L8.67 11.21Q8.97 11.61 9.58 11.61L9.58 11.61L9.58 11.61Q10.18 11.61 10.60 11.21L10.60 11.21L10.60 11.21Q10.82 11.00 10.96 10.70L10.96 10.70L10.96 10.70Q11.02 10.58 11.11 10.58L11.11 10.58L11.11 10.58Q11.20 10.58 11.26 10.74L11.26 10.74L11.26 10.74Q11.31 10.89 11.31 10.98ZM12.08 12.77L12.08 12.77L12.08 12.77Q12.33 11.26 12.33 9.14L12.33 9.14L12.33 9.14Q12.33 7.03 12.21 6.40L12.21 6.40L12.21 6.40Q12.21 6.22 12.63 6.22L12.63 6.22L12.63 6.22Q13.27 6.22 13.48 6.71L13.48 6.71L13.48 6.71Q13.50 6.75 13.55 6.75L13.55 6.75L13.55 6.75Q13.61 6.75 13.64 6.72L13.64 6.72L13.64 6.72Q14.07 6.27 14.98 6.27L14.98 6.27L14.98 6.27Q15.89 6.27 16.42 6.73L16.42 6.73L16.42 6.73Q16.95 7.20 16.95 8.08L16.95 8.08L16.95 8.08Q16.95 8.61 16.86 9.59L16.86 9.59L16.86 9.59Q16.77 10.57 16.77 11.05L16.77 11.05L16.77 11.05Q16.77 12.18 17.15 12.68L17.15 12.68L17.15 12.68Q17.21 12.75 17.21 12.82L17.21 12.82L17.21 12.82Q17.21 13.01 16.81 13.01L16.81 13.01L16.81 13.01Q15.08 13.01 15.08 11.47L15.08 11.47L15.08 11.47Q15.08 10.88 15.34 9.83L15.34 9.83L15.34 9.83Q15.61 8.78 15.61 8.23L15.61 8.23L15.61 8.23Q15.61 7.11 14.69 7.11L14.69 7.11L14.69 7.11Q14.24 7.11 14.01 7.38L14.01 7.38L14.01 7.38Q13.78 7.64 13.75 7.99L13.75 7.99L13.75 7.99Q13.72 8.33 13.72 9.28L13.72 9.28L13.72 9.28Q13.72 10.74 13.82 11.82L13.82 11.82L13.85 12.12L13.85 12.12Q13.85 12.52 13.33 12.73L13.33 12.73L13.33 12.73Q12.82 12.95 12.45 12.95L12.45 12.95L12.45 12.95Q12.08 12.95 12.08 12.77ZM22.25 11.06L22.25 11.06L22.25 11.06Q22.25 11.86 21.61 12.38L21.61 12.38L21.61 12.38Q20.97 12.91 20.09 12.91L20.09 12.91L20.09 12.91Q18.80 12.91 18.20 12.13L18.20 12.13L18.20 12.13Q17.60 11.35 17.60 10.02L17.60 10.02L17.60 10.02Q17.60 8.61 18.23 7.52L18.23 7.52L18.23 7.52Q18.54 6.96 19.11 6.64L19.11 6.64L19.11 6.64Q19.68 6.31 20.45 6.31L20.45 6.31L20.45 6.31Q21.62 6.31 22.09 7.10L22.09 7.10L22.09 7.10Q22.29 7.42 22.29 7.85L22.29 7.85L22.29 7.85Q22.29 8.53 21.73 8.86L21.73 8.86L21.73 8.86Q21.50 8.99 21.31 8.99L21.31 8.99L21.31 8.99Q21.13 8.99 21.01 8.97L21.01 8.97L21.01 8.97Q20.89 8.95 20.69 8.78L20.69 8.78L20.69 8.78Q20.50 8.61 20.50 8.32L20.50 8.32L20.50 8.32Q20.51 8.16 20.73 8.06L20.73 8.06L20.73 8.06Q20.94 7.94 20.94 7.62L20.94 7.62L20.94 7.62Q20.94 7.07 20.27 7.07L20.27 7.07L20.27 7.07Q20.10 7.07 19.87 7.22L19.87 7.22L19.87 7.22Q19.64 7.36 19.49 7.59L19.49 7.59L19.49 7.59Q19.33 7.83 19.20 8.32L19.20 8.32L19.20 8.32Q19.07 8.82 19.07 9.28L19.07 9.28L19.07 9.28Q19.07 9.73 19.10 9.96L19.10 9.96L19.10 9.96Q19.14 10.19 19.26 10.59L19.26 10.59L19.26 10.59Q19.38 10.99 19.70 11.24L19.70 11.24L19.70 11.24Q20.03 11.49 20.52 11.49L20.52 11.49L20.52 11.49Q21.11 11.49 21.56 11.00L21.56 11.00L21.56 11.00Q21.74 10.81 21.85 10.53L21.85 10.53L21.85 10.53Q21.91 10.42 21.99 10.42L21.99 10.42L21.99 10.42Q22.12 10.42 22.18 10.65L22.18 10.65L22.18 10.65Q22.25 10.88 22.25 11.06ZM24.43 5.18L24.43 5.18L24.09 5.17L24.09 5.17Q23.72 5.17 23.60 5.35L23.60 5.35L23.60 5.35Q23.58 5.39 23.53 5.39L23.53 5.39L23.53 5.39Q23.35 5.39 23.35 4.77L23.35 4.77L23.35 4.77Q23.35 4.14 23.54 3.98L23.54 3.98L23.54 3.98Q23.73 3.81 24.20 3.81L24.20 3.81L24.20 3.81Q24.67 3.81 24.84 3.97L24.84 3.97L24.84 3.97Q25.00 4.13 25.00 4.51L25.00 4.51L25.00 4.51Q25.00 4.89 24.88 5.03L24.88 5.03L24.88 5.03Q24.75 5.18 24.43 5.18ZM23.31 12.25L23.31 12.25L23.46 8.99L23.46 8.99Q23.46 7.83 23.20 7.41L23.20 7.41L23.20 7.41Q23.11 7.27 23.00 7.20L23.00 7.20L23.00 7.20Q22.92 7.17 22.92 7.08L22.92 7.08L22.92 7.08Q22.92 6.83 23.63 6.59L23.63 6.59L23.63 6.59Q24.35 6.36 24.67 6.36L24.67 6.36L24.67 6.36Q25.00 6.36 25.02 6.52L25.02 6.52L25.02 6.52Q25.02 6.80 24.94 8.11L24.94 8.11L24.94 8.11Q24.86 9.42 24.86 10.86L24.86 10.86L24.86 10.86Q24.86 12.31 25.03 12.66L25.03 12.66L25.03 12.66Q25.07 12.73 25.07 12.80L25.07 12.80L25.07 12.80Q25.07 12.98 24.54 12.98L24.54 12.98L24.54 12.98Q24.01 12.98 23.45 12.70L23.45 12.70L23.45 12.70Q23.31 12.63 23.31 12.25ZM27.82 4.66L27.82 4.66L27.73 9.80L27.73 9.80Q27.73 12.21 27.89 12.68L27.89 12.68L27.89 12.68Q27.93 12.77 27.93 12.85L27.93 12.85L27.93 12.85Q27.93 13.02 27.52 13.02L27.52 13.02L27.52 13.02Q27.12 13.02 26.62 12.82L26.62 12.82L26.62 12.82Q26.12 12.61 26.12 12.29L26.12 12.29L26.12 12.29Q26.40 10.33 26.40 7.06L26.40 7.06L26.35 4.91L26.35 4.91Q26.32 4.52 26.19 4.24L26.19 4.24L26.19 4.24Q26.05 3.96 25.93 3.88L25.93 3.88L25.82 3.81L25.82 3.81Q25.72 3.75 25.72 3.68L25.72 3.68L25.72 3.68Q25.72 3.49 26.33 3.20L26.33 3.20L26.33 3.20Q26.94 2.91 27.51 2.91L27.51 2.91L27.51 2.91Q27.73 2.91 27.76 3.07L27.76 3.07L27.76 3.07Q27.82 3.43 27.82 4.66Z"></path></g><defs data-v-fde0c5aa=""><!----></defs><g data-v-fde0c5aa="" id="43b78d5a-825c-439f-87c0-4a06a96d4d23" stroke="none" fill="#DCB933" transform="matrix(1.1680504586281302,0,0,1.1680504586281302,40,112.62178379644959)"><path d="M40 52.132l-1.445-.964a.995.995 0 0 0-1.109 0L35 52.798l-2.445-1.63a.995.995 0 0 0-1.109 0L29 52.798l-2.445-1.63a.995.995 0 0 0-1.109 0L24 52.132V30h-2v24c0 .269.11.521.295.705l-.002.002 9 9a.997.997 0 0 0 1.414 0l9-9-.002-.002A.995.995 0 0 0 42 54V35h-2v17.132zm-14 1.07l2.445 1.63a.995.995 0 0 0 1.109 0L32 53.202l2.445 1.63a.995.995 0 0 0 1.109 0L38 53.202l1.43.953L35.586 58h-7.172l-3.844-3.844 1.43-.954zm6 8.384L30.414 60h3.172L32 61.586zM19.093 21.287a1.002 1.002 0 0 0-.808-.681l-2.898-.422-1.297-2.627c-.336-.684-1.457-.684-1.793 0L11 20.185l-2.898.422a1.002 1.002 0 0 0-.555 1.705l2.098 2.045-.495 2.888c-.064.375.09.754.397.978a.995.995 0 0 0 1.054.076l2.593-1.363 2.593 1.363a1 1 0 0 0 1.451-1.054l-.495-2.888 2.098-2.045c.271-.266.369-.664.252-1.025zm-4.123 2.004a1 1 0 0 0-.287.885l.241 1.409-1.265-.665a.998.998 0 0 0-.932 0l-1.265.665.241-1.409a1 1 0 0 0-.287-.885l-1.023-.997 1.414-.206a1 1 0 0 0 .753-.547l.633-1.281.633 1.281a1 1 0 0 0 .753.547l1.414.206-1.023.997zM18.067 8.633l-.619 3.611a1 1 0 0 0 1.451 1.054l3.242-1.705 3.242 1.705a1 1 0 0 0 1.451-1.054l-.619-3.611 2.624-2.558a1.001 1.001 0 0 0-.555-1.705l-3.624-.527L23.038.558c-.336-.684-1.457-.684-1.793 0l-1.621 3.285-3.626.527a1.002 1.002 0 0 0-.555 1.705l2.624 2.558zm2.365-2.887a1 1 0 0 0 .753-.547l.957-1.939.958 1.939a1 1 0 0 0 .753.547l2.14.312-1.549 1.51a1 1 0 0 0-.287.885l.365 2.133-1.914-1.007a.998.998 0 0 0-.932 0l-1.914 1.007.365-2.133a1 1 0 0 0-.287-.885l-1.549-1.51 2.141-.312zM45.716 15.063l4.124-4.02a1.001 1.001 0 0 0-.555-1.705l-5.698-.828-2.549-5.163c-.336-.684-1.457-.684-1.793 0L36.696 8.51l-5.698.829a1.002 1.002 0 0 0-.555 1.705l4.124 4.02-.974 5.676a.997.997 0 1 0 1.451 1.054l5.097-2.68 5.097 2.68a1 1 0 0 0 1.451-1.054l-.973-5.677zm-1.773-1.065a1 1 0 0 0-.287.885l.72 4.197-3.769-1.981a.998.998 0 0 0-.932 0l-3.769 1.981.72-4.197a1 1 0 0 0-.287-.885l-3.049-2.972 4.213-.613a1 1 0 0 0 .753-.547l1.885-3.817 1.885 3.817a1 1 0 0 0 .753.547l4.213.613-3.049 2.972zM57.131 26.224l-2.535-.368-1.135-2.298c-.336-.684-1.457-.684-1.793 0l-1.134 2.298-2.536.368a1 1 0 0 0-.555 1.705l1.836 1.789-.434 2.526a1.002 1.002 0 0 0 .985 1.169c.159 0 .319-.038.466-.115l2.268-1.192 2.268 1.192a1 1 0 0 0 1.451-1.054l-.433-2.526 1.835-1.789a.998.998 0 1 0-.554-1.705zm-3.053 2.429a1 1 0 0 0-.287.885l.179 1.047-.939-.494a.998.998 0 0 0-.932 0l-.939.494.18-1.047a1 1 0 0 0-.287-.885l-.761-.742 1.051-.152a1 1 0 0 0 .753-.547l.47-.952.471.952c.146.296.427.5.753.547l1.051.152-.763.742z"></path><path d="M29 37h2c0-7.168-5.383-13-12-13v2c5.514 0 10 4.935 10 11zM35 42h2c0-7.047 3.206-13 7-13v-2c-5.047 0-9 6.589-9 15zM27 25h2c0-2.206 1.346-4 3-4v-2c-2.757 0-5 2.691-5 6zM20 16c1.654 0 3 1.794 3 4h2c0-3.309-2.243-6-5-6v2zM41 24v-2c-4.963 0-9 4.486-9 10h2c0-4.411 3.141-8 7-8zM35 44h2v2h-2zM32 34h2v2h-2zM29 39h2v2h-2zM29 43h2v2h-2zM29 47h2v2h-2zM12 30h2v2h-2zM0 16h2v2H0zM8 12h2v2H8zM49 17h2v2h-2zM60 10h2v2h-2zM4 5h2v2H4zM11 4h2v2h-2zM48 3h2v2h-2zM54 11h2v2h-2zM4 24H2v2H0v2h2v2h2v-2h2v-2H4zM61 16h-2v2h-2v2h2v2h2v-2h2v-2h-2zM61 0c-1.654 0-3 1.346-3 3s1.346 3 3 3 3-1.346 3-3-1.346-3-3-3zm0 4a1 1 0 1 1 0-2 1 1 0 0 1 0 2z"></path></g><!----></svg> 